<svg width="128" height="128" viewBox="0 0 128 128" fill="none" xmlns="http://www.w3.org/2000/svg">
<g clip-path="url(#clip0_49_66)">
<mask id="mask0_49_66" style="mask-type:alpha" maskUnits="userSpaceOnUse" x="0" y="0" width="128" height="128">
<path d="M128 0H0V128H128V0Z" fill="white"/>
</mask>
<g mask="url(#mask0_49_66)">
<path d="M128 0H0V128H128V0Z" fill="#253858"/>
<path d="M27.2 83.1C27.6 80.2 27.6 74.7 34 64.8C23.2 67.4 16.4 75 12.9 80.5C10.4 84.7 14.1 84.4 15.9 84C16.2 83.9 16.4 83.9 16.7 83.8H16.8C21.3 82.8 24.8 83.4 27.5 84.4C27.1 83.7 27.2 83.1 27.2 83.1Z" fill="white"/>
<path d="M43.7 100.3C44.8 103 45.4 106.6 44.4 111.1C44.4 111.1 44.4 111.1 44.4 111.2C44.3 111.5 44.3 111.7 44.2 112C43.8 113.8 43.5 117.5 47.7 115C53.5 111.2 61.7 103.8 63.8 91.8C53.1 99.3 47.1 99.9 43.7 100.3Z" fill="#D3E0EA"/>
<path d="M95.2 101.8C97.3539 101.8 99.1 100.054 99.1 97.9C99.1 95.7461 97.3539 94 95.2 94C93.0461 94 91.3 95.7461 91.3 97.9C91.3 100.054 93.0461 101.8 95.2 101.8Z" fill="#505F79"/>
<path d="M107 72.9C109.154 72.9 110.9 71.1539 110.9 69C110.9 66.8461 109.154 65.1 107 65.1C104.846 65.1 103.1 66.8461 103.1 69C103.1 71.1539 104.846 72.9 107 72.9Z" fill="#505F79"/>
<path d="M53.7 25C55.8539 25 57.6 23.2539 57.6 21.1C57.6 18.946 55.8539 17.2 53.7 17.2C51.5461 17.2 49.8 18.946 49.8 21.1C49.8 23.2539 51.5461 25 53.7 25Z" fill="#505F79"/>
<path d="M21.1 48.4C23.2539 48.4 25 46.6539 25 44.5C25 42.3461 23.2539 40.6 21.1 40.6C18.9461 40.6 17.2 42.3461 17.2 44.5C17.2 46.6539 18.9461 48.4 21.1 48.4Z" fill="#505F79"/>
<path d="M73.7 110.4C75.8539 110.4 77.6 108.654 77.6 106.5C77.6 104.346 75.8539 102.6 73.7 102.6C71.5461 102.6 69.8 104.346 69.8 106.5C69.8 108.654 71.5461 110.4 73.7 110.4Z" fill="#505F79"/>
<path d="M41.4 99.7C41.5 99.8 41.6 99.9 41.8 99.9C41.6 99.8 41.5 99.8 41.4 99.7Z" fill="#4AC6C6"/>
<path d="M34.2 92.6L90.1 36.7L80 26.5C70.9 29.3 61.4 33.5 49.8 45.1C26.6 68.3 26.9 78.7 26.3 83.1C26.3 83.1 26.2 84.6 27.5 85.9L34.2 92.6Z" fill="#00B8D9"/>
<path d="M40.9 99.3C41 99.4 41.1 99.5 41.2 99.6C41.1 99.4 41 99.3 40.9 99.3Z" fill="#4AC6C6"/>
<path d="M103.1 28.2C103.1 27.7 103.1 27.2 103 26.8C102.9 26.3 102.8 25.9 102.7 25.6C102.6 25.3 102.5 25.1 102.4 24.9C102.3 24.8 102.3 24.7 102.2 24.6L90.2 36.6L100.3 46.7C102.1 41.6 102.7 37.2 102.9 33.6C103 31.6 103 29.7 103.1 28.2Z" fill="#C5DEEB"/>
<path d="M90 36.7L25.2 101.5C26.8 103.1 32 100.7 37.5 96L40.7 99.1999L40.8 99.3C41.1 99.6 42.4 100.7 43.9 100.5C48.6 99.7999 58.9 99.7999 81.6 77.0999C93.2 65.4999 97.4 56 100.2 46.9L90 36.7Z" fill="#008DA6"/>
<path d="M101.9 24.4C101.5 24.1 100.5 23.6 98.6 23.7H98.2C94.1 23.8 87.9 23.8 80 26.5L90.1 36.6L102.1 24.6C102 24.5 102 24.5 101.9 24.4Z" fill="white"/>
<path d="M25.3 101.5C25.4 101.6 25.5 101.7 25.7 101.8C25.7 101.8 25.8 101.8 25.9 101.9C26 101.9 26.1 102 26.2 102H26.4H26.8H27.1H27.5H27.8C27.9 102 28.1 101.9 28.3 101.9C28.5 101.8 28.7 101.8 29 101.7C29.1 101.7 29.3 101.6 29.4 101.6C29.6 101.5 29.8 101.5 29.9 101.4C30 101.4 30.1 101.3 30.2 101.3C30.4 101.2 30.6 101.1 30.8 101C30.9 101 31 100.9 31.1 100.9C31.3 100.8 31.6 100.7 31.8 100.5C31.9 100.5 31.9 100.4 32 100.4C33.5 99.6 35.1 98.4 36.7 97.1C37 96.8 37.4 96.5 37.7 96.3C38.8 95.4 39.9 94.4 41 93.3C47.7 86.6 51.5 79.7 49.6 77.7L25.3 101.5Z" fill="#C5DEEB"/>
<path d="M49.6 77.4C47.7 75.5 40.7 79.3 34 86C27.3 92.7 23.5 99.6 25.4 101.6L49.6 77.4Z" fill="white"/>
<path d="M25.6999 101.6C25.5999 101.6 25.5999 101.5 25.4999 101.5C25.5999 101.5 25.5999 101.6 25.6999 101.6Z" fill="white"/>
<path d="M68.8 65.3C73.3287 65.3 77 61.6288 77 57.1C77 52.5713 73.3287 48.9 68.8 48.9C64.2712 48.9 60.6 52.5713 60.6 57.1C60.6 61.6288 64.2712 65.3 68.8 65.3Z" fill="white"/>
<path d="M76.7 49.2C72.3 44.8 65.2 44.8 60.9 49.2C56.6 53.6 56.5 60.7 60.9 65C65.3 69.3 72.4 69.4 76.7 65C81 60.6 81.1 53.6 76.7 49.2ZM63.8 62.1C61.1 59.4 61.1 54.9 63.8 52.2C66.5 49.5 71 49.5 73.7 52.2C76.4 54.9 76.4 59.4 73.7 62.1C71 64.8 66.6 64.8 63.8 62.1Z" fill="#253858"/>
</g>
</g>
<defs>
<clipPath id="clip0_49_66">
<rect width="128" height="128" fill="white"/>
</clipPath>
</defs>
</svg>
