<svg width="128" height="128" viewBox="0 0 128 128" fill="none" xmlns="http://www.w3.org/2000/svg">
<g clip-path="url(#clip0_48_90)">
<mask id="mask0_48_90" style="mask-type:alpha" maskUnits="userSpaceOnUse" x="0" y="0" width="128" height="128">
<path d="M128 0H0V128H128V0Z" fill="white"/>
</mask>
<g mask="url(#mask0_48_90)">
<path d="M128 0H0V128H128V0Z" fill="#FFC400"/>
<path d="M41.6 105.6C49.6 107.1 58.3 104.7 64.5 98.6L99.4 63.7C105.7 57.4 108 48.6 106.4 40.5L41.6 105.6Z" fill="#FF991F"/>
<path d="M91.1 21.8C81.8 18 70.6 19.8 63.1 27.4L28.2 62.3C20.7 69.8 18.8 80.9 22.6 90.1L91.1 21.8Z" fill="#FF991F"/>
<path d="M36.4 104.1C38.3 104.9 40.2 105.4 42.1 105.7L106.5 41.3C106.2 39.3 105.6 37.4 104.8 35.5L36.4 104.1Z" fill="#FF8B01"/>
<path d="M24.3 102.9C24.6 103.2 25 103.5 25.3 103.8L104.4 24.3C104.2 24 103.9 23.7 103.7 23.5L103.3 23.1C99.4 19.2 93 19.2 89.2 23.1L23.9 88.3C20 92.2001 20 98.6 23.9 102.4L24.3 102.9Z" fill="#FF5630"/>
<path d="M38.6 102.7L103.5 37.8C107.5 33.8 107.5 27.3 103.5 23.3L24.1 102.7C28.1 106.7 34.6 106.7 38.6 102.7Z" fill="#DE350A"/>
<path d="M49.7 85.4C53 81.1 53 77 53 76.7C53.1 75.4 53.8 68.3 61.5 68.2H61.9C63.2 68.3 67.1 68.2 71.2 64.1L71.3 64C71.8 63.5 72.2 63 72.7 62.4C76 58.1 76 54.1 76 53.7C76.1 52.4 76.8 45.3 84.5 45.2C85.3 45.2 86 44.9 86.6 44.3C87.8 43.1 87.8 41.3 86.6 40.1C86.1 39.6 85.4 39.3 84.7 39.3C84.7 39.3 80 38.3 74.9 43.3L74.8 43.4C74.3 43.9 73.9 44.4 73.4 45C70.1 49.3 70.1 53.3 70.1 53.7C70 55 69.3 62.1 61.6 62.2H61.2C59.9 62.1 56 62.2 51.9 66.3L51.8 66.4C51.3 66.9 50.9 67.4 50.4 68C47.1 72.3 47.1 76.3 47.1 76.7C47 78 46.3 85.1 38.6 85.2C37.8 85.2 37.1 85.5 36.5 86.1C35.3 87.3 35.3 89.1 36.5 90.3C37 90.8 37.7 91.1 38.4 91.1C38.4 91.1 43.1 92.1 48.2 87.1L48.3 87C48.8 86.5 49.2 86 49.7 85.4Z" fill="#FFA821"/>
<path d="M45.4 73.1C44.8 73.5 44.3 74 43.8 74.5L43.7 74.6C38.7 79.6 39.7 84.4 39.7 84.4C39.7 84.7 39.8 84.9 39.9 85.2C43.5 84.8 45.3 82.8 46.3 80.8C46.4 80.6 46.4 80.5 46.5 80.4C47.1 78.9 47.3 77.4 47.3 76.9C47.3 76.6 47.3 74.3 48.7 71.4C47.5 71.6 46.4 72.3 45.4 73.1Z" fill="white"/>
<path d="M68.4 50.1C67.8 50.5 67.3 51 66.8 51.5L66.7 51.6C65.1 53.2 64.2 54.7 63.6 56C62.6 58.2 62.6 60.1 62.7 60.9V61.3C62.7 66.1 59.9 68.2 57.5 69.1C54.3 70.7 53.4 74 53.2 75.8C53.6 75.7 53.9 75.7 54.1 75.7C54.4 75.7 58.5 75.7 62.8 72.4C63.4 72 63.9 71.5 64.4 71L64.5 70.9C65.8 69.6 66.8 68.2 67.4 67C68.7 64.5 68.7 62.4 68.6 61.5V61.1C68.6 59.8 68.8 58.7 69.2 57.8C69.2 57.8 69.2 57.7 69.3 57.7C69.4 57.5 69.4 57.4 69.5 57.3C70.1 55.8 70.3 54.3 70.3 53.8C70.3 53.5 70.3 51.2 71.7 48.3C70.6 48.6 69.5 49.2 68.4 50.1Z" fill="white"/>
<path d="M91.5 38C91.4 37.3 91.2 36.6 90.6 36.1C89.4 34.9 87.6 34.9 86.4 36.1C85.8 36.7 85.5 37.5 85.5 38.2C85.5 38.6 85.5 39 85.4 39.3C85.8 39.4 86.2 39.7 86.6 40C87.8 41.2 87.8 43 86.6 44.2C86 44.8 85.2 45.1 84.5 45.1C83.2 45.1 82 45.3 81.1 45.7C81 45.8 80.8 45.8 80.7 45.9C77.3 47.5 76.4 50.9 76.2 52.7C76.6 52.6 76.9 52.6 77.1 52.6C77.4 52.6 81.5 52.6 85.8 49.3C86.4 48.9 86.9 48.4 87.4 47.9L87.5 47.8C92.6 42.7 91.5 38 91.5 38Z" fill="white"/>
</g>
</g>
<defs>
<clipPath id="clip0_48_90">
<rect width="128" height="128" fill="white"/>
</clipPath>
</defs>
</svg>
