<svg width="128" height="128" viewBox="0 0 128 128" fill="none" xmlns="http://www.w3.org/2000/svg">
<g clip-path="url(#clip0_14_22)">
<mask id="mask0_14_22" style="mask-type:alpha" maskUnits="userSpaceOnUse" x="0" y="0" width="128" height="128">
<path d="M128 0H0V128H128V0Z" fill="white"/>
</mask>
<g mask="url(#mask0_14_22)">
<path d="M128 0H0V128H128V0Z" fill="#6555C0"/>
<path d="M63.218 109.557C85.6822 109.557 103.893 91.3462 103.893 68.882C103.893 46.4179 85.6822 28.207 63.218 28.207C40.7538 28.207 22.543 46.4179 22.543 68.882C22.543 91.3462 40.7538 109.557 63.218 109.557Z" fill="white"/>
<path d="M81.832 41.449H45.294V23.237C45.294 21.58 46.637 20.237 48.294 20.237H78.832C80.489 20.237 81.832 21.58 81.832 23.237V41.449Z" fill="white"/>
<path opacity="0.1" d="M63.127 99.686C80.1396 99.686 93.931 85.8946 93.931 68.882C93.931 51.8694 80.1396 38.078 63.127 38.078C46.1144 38.078 32.323 51.8694 32.323 68.882C32.323 85.8946 46.1144 99.686 63.127 99.686Z" fill="#7F4CBF"/>
<path d="M72.24 32.878H54.886C53.229 32.878 51.886 31.535 51.886 29.878V14.797C51.886 13.14 53.229 11.797 54.886 11.797H72.24C73.897 11.797 75.24 13.14 75.24 14.797V29.878C75.24 31.535 73.897 32.878 72.24 32.878Z" fill="#00C7E6"/>
<path d="M64.255 68.882C64.255 68.882 31.745 53.289 32.567 71.881C33.22 86.665 59.937 83.747 59.937 83.747L64.255 68.882Z" fill="#DE350A"/>
<path d="M62.085 66.354C79.394 51.896 93.542 70.82 93.542 70.82L93.69 71.015C92.594 86.962 79.32 99.56 63.094 99.56C47.163 99.56 34.071 87.416 32.564 71.88C33.191 72.369 45.309 80.367 62.085 66.354Z" fill="#FF5630"/>
<path opacity="0.5" d="M76.923 20.237H50.348V35.129H76.923V20.237Z" fill="white"/>
<path d="M61.798 53.952C65.1156 53.952 67.805 51.2626 67.805 47.945C67.805 44.6274 65.1156 41.938 61.798 41.938C58.4804 41.938 55.791 44.6274 55.791 47.945C55.791 51.2626 58.4804 53.952 61.798 53.952Z" fill="#FF5630"/>
<path d="M74.681 56.817C76.7758 56.817 78.474 55.1188 78.474 53.024C78.474 50.9292 76.7758 49.231 74.681 49.231C72.5862 49.231 70.888 50.9292 70.888 53.024C70.888 55.1188 72.5862 56.817 74.681 56.817Z" fill="#FF5630"/>
</g>
</g>
<defs>
<clipPath id="clip0_14_22">
<rect width="128" height="128" fill="white"/>
</clipPath>
</defs>
</svg>
