<?xml version="1.0" encoding="iso-8859-1"?>
<!-- Generator: Adobe Illustrator 19.0.0, SVG Export Plug-In . SVG Version: 6.00 Build 0)  -->
<svg version="1.1" id="Layer_1" xmlns="http://www.w3.org/2000/svg" xmlns:xlink="http://www.w3.org/1999/xlink" x="0px" y="0px"
	 viewBox="0 0 459.99 459.99" style="enable-background:new 0 0 459.99 459.99;" xml:space="preserve">
<g id="XMLID_1053_">
	<path id="XMLID_1054_" style="fill:#FC5A37;" d="M195.821,457.45l261.63-261.63c0.06,0.403,0.127,0.82,0.19,1.227
		C441.655,85.636,345.836,0,230.001,0c-127.026,0-230,102.974-230,230c0,115.875,85.695,211.72,197.164,227.656
		C196.719,457.588,196.262,457.516,195.821,457.45z"/>
	<path id="XMLID_1055_" style="fill:#DB3916;" d="M99.186,360.815l96.635,96.635c69.662,10.412,143.185-11.186,196.814-64.815
		s75.227-127.152,64.815-196.814l-96.635-96.635L99.186,360.815z"/>
	<path id="XMLID_1056_" style="fill:#7BE3FF;" d="M177.674,52.502c-25.706,7.566-49.099,20.572-68.829,37.684
		c0,0-32.542,36.819-32.548,36.813C56.532,156.44,45.001,191.876,45.001,230c0,33.974,9.152,65.813,25.141,93.174l57.609,42.403
		c0,0,46.25,40.783,46.25,40.792c17.668,5.606,36.482,8.63,56,8.63l10-185l-10-150.644L177.674,52.502z"/>
	<path id="XMLID_1057_" style="fill:#FFFFFF;" d="M177.676,52.503c3.643,25.638,25.684,45.355,52.324,45.355V45
		C211.829,45,194.266,47.623,177.676,52.503z"/>
	<path id="XMLID_1058_" style="fill:#73A7E6;" d="M110.205,257.366c-2.252,0-4.459,0.187-6.608,0.544v-20.743c10.216,0,20,0,20,0
		v-26.398h27.822v20h20v-20h0.118v-78.908c8.196-3.035,14.041-10.922,14.041-20.177c0-11.868-9.62-21.498-21.498-21.498
		c0,0-36.939,0-55.227-0.004c-17.296,15-31.77,33.161-42.548,53.576v76.107c0,9.554,7.737,17.301,17.292,17.301v30.319
		c-8.251,7.335-13.455,18.027-13.455,29.934v25.755c22.903,39.201,59.809,69.223,103.862,83.189v-59.284h4.424
		c12.318-2.585,21.573-13.507,21.573-26.593c0-14.997,0-63.12,0-63.12S132.331,257.366,110.205,257.366z"/>
	<path id="XMLID_1059_" style="fill:#FE843F;" d="M230.001,45v370c102.008,0,185-82.992,185-185S332.009,45,230.001,45z"/>
	<path id="XMLID_1060_" style="fill:#FFCC75;" d="M230.001,65v330c90.98,0,165-74.02,165-165S320.981,65,230.001,65z"/>
	<path id="XMLID_1061_" style="fill:#FC5A37;" d="M230.001,130v200c55.138,0,100-44.861,100-100S285.14,130,230.001,130z"/>
	<path id="XMLID_1062_" style="fill:#6E1D0B;" d="M230.001,180v100c27.615,0,50-22.385,50-50S257.617,180,230.001,180z"/>
</g>
<g>
</g>
<g>
</g>
<g>
</g>
<g>
</g>
<g>
</g>
<g>
</g>
<g>
</g>
<g>
</g>
<g>
</g>
<g>
</g>
<g>
</g>
<g>
</g>
<g>
</g>
<g>
</g>
<g>
</g>
</svg>
