<?xml version="1.0" encoding="iso-8859-1"?>
<!-- Generator: Adobe Illustrator 18.0.0, SVG Export Plug-In . SVG Version: 6.00 Build 0)  -->
<!DOCTYPE svg PUBLIC "-//W3C//DTD SVG 1.1//EN" "http://www.w3.org/Graphics/SVG/1.1/DTD/svg11.dtd">
<svg version="1.1" id="Capa_1" xmlns="http://www.w3.org/2000/svg" xmlns:xlink="http://www.w3.org/1999/xlink" x="0px" y="0px"
	 viewBox="0 0 203 203" style="enable-background:new 0 0 203 203;" xml:space="preserve">
<g>
	<circle style="fill:#C2D536;" cx="101.5" cy="101.5" r="101.5"/>
	<g>
		<g>
			<path style="fill:#C3BAAB;" d="M84.296,164.774c6.497-0.854,12.987-10.096,10.451-25.95c-2.539-15.855-6.153-32.805-0.264-61.363
				c3.6-17.47,0.853-33.216-9.754-38.7c-7.892-4.08-35.447,1.828-39.297,33.059c-1.971,15.951,8.031,40.684,8.655,59.198
				C55.281,166.306,70.085,166.65,84.296,164.774"/>
			<path style="fill:#FFFFFF;" d="M84.152,162.724c-13.879,1.831-28.332,1.493-29.497-32.96
				c-0.612-18.084-10.379-42.233-8.456-57.812c3.764-30.492,30.67-36.262,38.379-32.278c10.352,5.355,13.038,20.73,9.52,37.785
				c-5.748,27.892-2.222,44.446,0.257,59.925C96.835,152.864,90.494,161.888,84.152,162.724"/>
			<g>
				<defs>
					<path id="SVGID_1_" d="M84.152,162.724c-13.879,1.831-28.332,1.493-29.497-32.96c-0.612-18.084-10.379-42.233-8.456-57.812
						c3.764-30.492,30.67-36.262,38.379-32.278c10.352,5.355,13.038,20.73,9.52,37.785c-5.748,27.892-2.222,44.446,0.257,59.925
						C96.835,152.864,90.494,161.888,84.152,162.724"/>
				</defs>
				<clipPath id="SVGID_2_">
					<use xlink:href="#SVGID_1_"  style="overflow:visible;"/>
				</clipPath>
				
					<rect x="32.199" y="118.534" transform="matrix(-0.9997 0.0247 -0.0247 -0.9997 151.3427 257.9794)" style="clip-path:url(#SVGID_2_);fill:#E44326;" width="83.754" height="22.783"/>
				
					<rect x="33.181" y="72.313" transform="matrix(-0.9999 -0.017 0.017 -0.9999 148.6804 168.676)" style="clip-path:url(#SVGID_2_);fill:#F04E23;" width="83.755" height="22.783"/>
				
					<rect x="34.166" y="28.059" transform="matrix(-0.9995 -0.031 0.031 -0.9995 150.8285 81.2356)" style="clip-path:url(#SVGID_2_);fill:#E44326;" width="83.755" height="22.783"/>
			</g>
			<path style="fill:#232323;" d="M50.515,108.183c0,0-1.546-12.015,6.7-18.623c8.25-6.608,20.682-20.479,21.12-22.97
				c0.441-2.487-0.634-2.746-0.634-2.746s-2.865,0.441-2.606-0.633c0.257-1.074,1.078-3.795,3.881-2.633
				c2.8,1.164,3.831,5.631,3.831,5.631s9.935,11.707,14.961,20.162c9.352,15.724-1.608,32.495-1.781,32.787
				c-6.348,10.84-10.048,17.409-12.538,11.615c-1.681-3.9,8.318-12.054,10.052-17.812c5.756-19.143-8.14-33.804-10.216-35.278
				c-2.078-1.477-5.799,1.842-8.571,4.583c-2.771,2.735-17.363,16.029-19.309,21.399c-1.945,5.371-3.923,9.006-3.923,9.006
				L50.515,108.183z"/>
		</g>
		<g>
			<path style="fill:#C3BAAB;" d="M124.704,164.775c-6.498-0.855-12.987-10.095-10.451-25.95
				c2.539-15.855,6.152-32.805,0.264-61.363c-3.601-17.47-0.854-33.216,9.753-38.7c7.892-4.08,35.447,1.828,39.297,33.06
				c1.971,15.952-8.031,40.684-8.654,59.199C153.719,166.306,138.915,166.65,124.704,164.775"/>
			<path style="fill:#FFFFFF;" d="M124.848,162.725c13.879,1.831,28.33,1.493,29.496-32.96c0.611-18.084,10.379-42.233,8.456-57.812
				c-3.764-30.491-30.671-36.262-38.378-32.278c-10.352,5.355-13.039,20.73-9.52,37.785c5.747,27.892,2.222,44.446-0.259,59.925
				C112.163,152.864,118.505,161.889,124.848,162.725"/>
			<g>
				<defs>
					<path id="SVGID_3_" d="M124.848,162.725c13.879,1.831,28.33,1.493,29.496-32.96c0.611-18.084,10.379-42.233,8.456-57.812
						c-3.764-30.491-30.671-36.262-38.378-32.278c-10.352,5.355-13.039,20.73-9.52,37.785c5.747,27.892,2.222,44.446-0.259,59.925
						C112.163,152.864,118.505,161.889,124.848,162.725"/>
				</defs>
				<clipPath id="SVGID_4_">
					<use xlink:href="#SVGID_3_"  style="overflow:visible;"/>
				</clipPath>
				
					<rect x="93.045" y="118.534" transform="matrix(0.9997 0.0247 -0.0247 0.9997 3.2542 -3.2968)" style="clip-path:url(#SVGID_4_);fill:#E44326;" width="83.756" height="22.783"/>
				
					<rect x="92.062" y="72.313" transform="matrix(0.9999 -0.017 0.017 0.9999 -1.4069 2.2945)" style="clip-path:url(#SVGID_4_);fill:#E44326;" width="83.755" height="22.784"/>
				
					<rect x="91.08" y="28.059" transform="matrix(0.9995 -0.0309 0.0309 0.9995 -1.1573 4.1339)" style="clip-path:url(#SVGID_4_);fill:#E44326;" width="83.755" height="22.783"/>
			</g>
			<path style="fill:#232323;" d="M158.485,108.184c0,0,1.545-12.015-6.701-18.624c-8.25-6.608-20.681-20.479-21.119-22.97
				c-0.441-2.487,0.634-2.746,0.634-2.746s2.864,0.441,2.606-0.633c-0.258-1.073-1.079-3.795-3.882-2.633
				c-2.799,1.164-3.83,5.631-3.83,5.631s-9.935,11.707-14.962,20.162c-9.352,15.724,1.609,32.495,1.782,32.786
				c6.348,10.84,10.048,17.409,12.538,11.616c1.681-3.9-8.318-12.054-10.052-17.812c-5.757-19.143,8.14-33.804,10.216-35.278
				c2.077-1.478,5.799,1.842,8.57,4.584c2.771,2.735,17.363,16.029,19.31,21.399c1.945,5.371,3.922,9.007,3.922,9.007
				L158.485,108.184z"/>
		</g>
	</g>
</g>
<g>
</g>
<g>
</g>
<g>
</g>
<g>
</g>
<g>
</g>
<g>
</g>
<g>
</g>
<g>
</g>
<g>
</g>
<g>
</g>
<g>
</g>
<g>
</g>
<g>
</g>
<g>
</g>
<g>
</g>
</svg>
