<svg width="127" height="128" viewBox="0 0 127 128" fill="none" xmlns="http://www.w3.org/2000/svg">
<mask id="mask0_49_19" style="mask-type:alpha" maskUnits="userSpaceOnUse" x="0" y="0" width="128" height="128">
<path d="M128 0H0V128H128V0Z" fill="white"/>
</mask>
<g mask="url(#mask0_49_19)">
<path d="M128 0H0V128H128V0Z" fill="#FFC400"/>
<path d="M100.555 35.125C100.555 31.462 97.558 28.465 93.895 28.465H30.402C25.757 28.465 21.957 32.265 21.957 36.91V76.657H100.555V45.316V35.125Z" fill="#2A5083"/>
<path d="M89.189 28.465H82.232L80.756 30.063L79.186 28.465H30.402C25.757 28.465 21.957 32.265 21.957 36.91C21.957 41.555 25.757 45.355 30.402 45.355H89.19C93.835 45.355 97.635 41.555 97.635 36.91C97.635 32.265 93.834 28.465 89.189 28.465Z" fill="#153A56"/>
<path d="M96.013 28.465H77.964L73.68 76.657H102.674V45.316V35.125C102.674 31.462 99.676 28.465 96.013 28.465Z" fill="#153A56"/>
<path d="M80.756 30.063L79.804 28.465L75.633 21.464C74.443 19.467 71.871 18.797 69.858 19.958L55.113 28.465L27.053 44.654C28.082 45.102 29.213 45.354 30.402 45.354H31.714H89.19H89.868L80.756 30.063Z" fill="#00B8D9"/>
<path d="M26.957 102.057H101.148C103.898 102.057 106.148 99.807 106.148 97.057V50.354C106.148 47.604 103.898 45.354 101.148 45.354H26.957C24.207 45.354 21.957 47.604 21.957 50.354V97.056C21.957 99.807 24.207 102.057 26.957 102.057Z" fill="#253858"/>
<path d="M89.033 83.983H107.732C109.382 83.983 110.732 82.633 110.732 80.983V64.356C110.732 62.706 109.382 61.356 107.732 61.356H89.033C84.362 61.356 80.54 65.178 80.54 69.849V75.489C80.54 80.161 84.362 83.983 89.033 83.983Z" fill="#153A56"/>
<path d="M92.472 77.831C95.3229 77.831 97.634 75.5198 97.634 72.669C97.634 69.8181 95.3229 67.507 92.472 67.507C89.6211 67.507 87.31 69.8181 87.31 72.669C87.31 75.5198 89.6211 77.831 92.472 77.831Z" fill="#FFB115"/>
<path d="M60.175 85.379C67.1945 85.379 72.885 79.6885 72.885 72.669C72.885 65.6494 67.1945 59.959 60.175 59.959C53.1554 59.959 47.465 65.6494 47.465 72.669C47.465 79.6885 53.1554 85.379 60.175 85.379Z" fill="#345E8C"/>
<path opacity="0.5" d="M82.366 44.921L72.013 27.569C71.568 26.823 70.593 26.576 69.846 27.022L60.944 32.333C60.198 32.778 59.951 33.753 60.397 34.5C60.842 35.246 61.817 35.493 62.564 35.047L70.109 30.545L78.945 45.354H82.537C82.499 45.206 82.448 45.059 82.366 44.921Z" fill="white"/>
<path opacity="0.5" d="M62.323 45.3539C60.596 41.3789 56.638 38.5959 52.027 38.5959C47.416 38.5959 43.459 41.3779 41.731 45.3539H62.323Z" fill="white"/>
<path d="M79.822 28.496L90.107 25.811C92.378 25.218 94.7 26.578 95.293 28.85L99.603 45.355H89.18L79.822 28.496Z" fill="#00A3BF"/>
<path opacity="0.5" d="M93.818 45.354L90.328 32.767C90.096 31.929 89.22 31.434 88.383 31.666L82.536 33.287L84.114 36.129L87.705 35.133L90.539 45.353H93.818V45.354Z" fill="white"/>
<path opacity="0.1" d="M85.941 26.8979L91.651 45.3539H89.18L79.822 28.4959L85.941 26.8979Z" fill="#153A56"/>
<path opacity="0.1" d="M100.555 41.975H27.052V46.454H100.555V41.975Z" fill="#153A56"/>
</g>
</svg>
