<?xml version="1.0" encoding="iso-8859-1"?>
<!-- Generator: Adobe Illustrator 19.0.0, SVG Export Plug-In . SVG Version: 6.00 Build 0)  -->
<svg version="1.1" id="Layer_1" xmlns="http://www.w3.org/2000/svg" xmlns:xlink="http://www.w3.org/1999/xlink" x="0px" y="0px"
	 viewBox="0 0 512 512" style="enable-background:new 0 0 512 512;" xml:space="preserve">
<circle style="fill:#FFC61B;" cx="256" cy="256" r="256"/>
<path style="fill:#D48B07;" d="M512,256c0-10.23-0.619-20.313-1.786-30.23l-83.547-83.547L85.333,369.778L225.77,510.214
	C235.685,511.381,245.77,512,256,512C397.384,512,512,397.384,512,256z"/>
<rect x="85.333" y="142.222" style="fill:#FFFFFF;" width="341.333" height="227.556"/>
<rect x="254.845" y="142.222" style="fill:#E2E2E2;" width="171.822" height="227.556"/>
<rect x="113.778" y="170.667" style="fill:#38C6D9;" width="56.889" height="56.889"/>
<rect x="113.778" y="284.444" style="fill:#FF6161;" width="56.889" height="56.889"/>
<rect x="227.556" y="284.444" style="fill:#EA7D7D;" width="56.889" height="56.889"/>
<rect x="341.333" y="284.444" style="fill:#F48989;" width="56.889" height="56.889"/>
<g>
	<rect x="170.667" y="284.444" style="fill:#FFAD9E;" width="56.889" height="56.889"/>
	<rect x="284.444" y="284.444" style="fill:#FFAD9E;" width="56.889" height="56.889"/>
</g>
<rect x="170.667" y="170.667" style="fill:#273B7A;" width="56.889" height="56.889"/>
<rect x="113.778" y="227.556" style="fill:#A0A0A0;" width="56.889" height="56.889"/>
<rect x="227.556" y="227.556" style="fill:#BFBFBF;" width="56.889" height="56.889"/>
<rect x="341.333" y="170.667" style="fill:#A0A0A0;" width="56.889" height="56.889"/>
<g>
	<rect x="170.667" y="227.556" style="fill:#386895;" width="56.889" height="56.889"/>
	<rect x="341.333" y="227.556" style="fill:#386895;" width="56.889" height="56.889"/>
</g>
<rect x="284.444" y="170.667" style="fill:#2A577C;" width="56.889" height="56.889"/>
<rect x="227.556" y="170.667" style="fill:#5F90B7;" width="56.889" height="56.889"/>
<rect x="254.845" y="284.444" style="fill:#EA5E5E;" width="29.599" height="56.889"/>
<rect x="254.845" y="227.556" style="fill:#A0A0A0;" width="29.599" height="56.889"/>
<rect x="254.845" y="170.667" style="fill:#386895;" width="29.599" height="56.889"/>
<rect x="284.444" y="227.556" style="fill:#5D90BA;" width="56.889" height="56.889"/>
<g>
</g>
<g>
</g>
<g>
</g>
<g>
</g>
<g>
</g>
<g>
</g>
<g>
</g>
<g>
</g>
<g>
</g>
<g>
</g>
<g>
</g>
<g>
</g>
<g>
</g>
<g>
</g>
<g>
</g>
</svg>
