<svg width="128" height="128" viewBox="0 0 128 128" fill="none" xmlns="http://www.w3.org/2000/svg">
<g clip-path="url(#clip0_1_204)">
<mask id="mask0_1_204" style="mask-type:alpha" maskUnits="userSpaceOnUse" x="0" y="0" width="128" height="128">
<path d="M128 0H0V128H128V0Z" fill="white"/>
</mask>
<g mask="url(#mask0_1_204)">
<path d="M128 0H0V128H128V0Z" fill="#6555C0"/>
<path d="M79.305 83.496C84.9117 83.496 89.457 78.9508 89.457 73.344C89.457 67.7372 84.9117 63.192 79.305 63.192C73.6982 63.192 69.153 67.7372 69.153 73.344C69.153 78.9508 73.6982 83.496 79.305 83.496Z" fill="#194063"/>
<path d="M93.4739 106.423C101.133 106.423 107.399 100.157 107.399 92.498V68.75C107.399 61.091 101.133 54.825 93.4739 54.825C85.8149 54.825 79.549 61.091 79.549 68.75V92.497C79.548 100.156 85.8149 106.423 93.4739 106.423Z" fill="#FFC400"/>
<path d="M43.305 57.8101H17.559C14.01 57.8101 11.106 54.9061 11.106 51.3571C11.106 47.8081 14.01 44.9041 17.559 44.9041H43.306C46.87 44.9041 49.759 47.7931 49.759 51.3571C49.758 54.9061 46.854 57.8101 43.305 57.8101Z" fill="white"/>
<path d="M23.9919 57.81H28.3019L38.1559 44.905H33.8459L23.9919 57.81Z" fill="#D3E0EA"/>
<path d="M48.186 34.92V67.198C48.186 69.889 50.368 72.071 53.059 72.071H107.399V46.245C107.399 37.274 100.127 30.002 91.156 30.002H53.059C50.368 30.001 48.186 32.204 48.186 34.92Z" fill="#FFC400"/>
<path d="M48.186 34.87H39.513C36.822 34.87 34.64 37.052 34.64 39.743V62.32C34.64 65.011 36.822 67.193 39.513 67.193H48.186V34.87Z" fill="#2A5083"/>
<path d="M48.186 67.198V34.875H44.274C44.274 34.892 44.269 34.909 44.269 34.926V67.198H48.186Z" fill="#194063"/>
<path d="M92.382 45.485H75.784C74.976 45.485 74.314 44.824 74.314 44.015V42.18C74.314 41.372 74.975 40.71 75.784 40.71H92.382C93.19 40.71 93.852 41.371 93.852 42.18V44.015C93.852 44.823 93.191 45.485 92.382 45.485Z" fill="#2A5083"/>
<path d="M92.382 53.453H75.784C74.976 53.453 74.314 52.792 74.314 51.983V50.148C74.314 49.34 74.975 48.678 75.784 48.678H92.382C93.19 48.678 93.852 49.339 93.852 50.148V51.983C93.852 52.791 93.191 53.453 92.382 53.453Z" fill="#2A5083"/>
<path d="M92.382 61.285H75.784C74.976 61.285 74.314 60.624 74.314 59.815V57.98C74.314 57.172 74.975 56.51 75.784 56.51H92.382C93.19 56.51 93.852 57.171 93.852 57.98V59.815C93.852 60.623 93.191 61.285 92.382 61.285Z" fill="#2A5083"/>
<path d="M13.665 56.632C14.646 57.321 15.824 57.732 17.095 57.784L26.929 44.905H22.619L13.665 56.632Z" fill="#D3E0EA"/>
<path d="M81.421 72.072H79.548V72.232V73.911V92.058C79.548 99.717 85.815 105.984 93.474 105.984C93.533 105.984 93.59 105.976 93.649 105.975V84.3C93.649 77.574 88.147 72.072 81.421 72.072Z" fill="#FF991F"/>
</g>
</g>
<defs>
<clipPath id="clip0_1_204">
<rect width="128" height="128" fill="white"/>
</clipPath>
</defs>
</svg>
