<?xml version="1.0" ?><!DOCTYPE svg  PUBLIC '-//W3C//DTD SVG 1.1//EN'  'http://www.w3.org/Graphics/SVG/1.1/DTD/svg11.dtd'><svg enable-background="new 0 0 256 256" height="256px" id="Layer_1" version="1.1" viewBox="0 0 256 256" width="256px" xml:space="preserve" xmlns="http://www.w3.org/2000/svg" xmlns:xlink="http://www.w3.org/1999/xlink"><g><g><g><path clip-rule="evenodd" d="M0,147.277v4.902c0,2.102,1.72,3.82,3.821,3.82      c32.374,0,32.706,0,48.357,0c2.103,0,3.821-1.719,3.821-3.82v-48.357c0-2.104-1.719-3.822-3.821-3.822H3.821      C1.72,100,0,101.719,0,103.822V147.277z" fill="#30A1C1" fill-rule="evenodd"/><path clip-rule="evenodd" d="M56,122.182v-18.359c0-2.102-1.72-3.822-3.821-3.822H3.821      C1.72,100,0,101.721,0,103.822v18.965C7.625,126.063,17.08,128,27.322,128C38.181,128,48.153,125.82,56,122.182z" fill="#3DB7CF" fill-rule="evenodd"/><path clip-rule="evenodd" d="M19.198,138.203c-3.916,3.207-8.407,4.117-13.261,3.578      c15.425,10.803,40.689,0.098,39.666-23.035c1.896-1.104,3.327-2.674,4.459-4.543c-1.556,0.799-3.256,1.199-5.046,1.35      c2.032-1.268,3.368-2.896,3.813-4.986c-1.316,0.973-3.258,1.629-5.691,2.273c-5.531-5.98-16.926-2.209-15.738,8.229      c-6.863,0.088-13.11-2.598-18.471-9.262c-2.389,4.488-1.182,8.934,2.699,11.848c-1.48,0.006-2.613-0.318-4.003-1.033      c0.204,4.449,2.46,8.031,7.23,9.063c-1.366,0.414-2.791,0.271-4.23,0C12.563,135.809,15.461,137.895,19.198,138.203z" fill="#FFFFFF" fill-rule="evenodd"/></g><g><path clip-rule="evenodd" d="M19,68.365v4.924C19,75.4,21.095,77,23.206,77      c32.525,0,32.858,0,48.584,0c2.111,0,4.21-1.6,4.21-3.711V24.705C76,22.594,73.901,21,71.79,21H23.206      C21.095,21,19,22.594,19,24.705V68.365z" fill="#3677A3" fill-rule="evenodd"/><path clip-rule="evenodd" d="M75,43.049V24.688C75,22.586,73.778,21,71.677,21H23.318      C21.217,21,19,22.586,19,24.688v18.967c8,3.275,17.08,5.213,27.322,5.213C57.18,48.867,68,46.688,75,43.049z" fill="#2F8AB0" fill-rule="evenodd"/><path clip-rule="evenodd" d="M46,77V51h-8v-8h8v-5.094C46,32.156,50.197,27,55.948,27H64v9      h-3.928C58.155,36,57,37.615,57,39.533V43h7v8h-7v26H46z" fill="#FFFFFF" fill-rule="evenodd"/></g><g><path clip-rule="evenodd" d="M200,147.277v4.902c0,2.102,1.72,3.82,3.821,3.82      c32.374,0,32.706,0,48.358,0c2.101,0,3.82-1.719,3.82-3.82v-48.357c0-2.102-1.72-3.822-3.82-3.822h-48.358      c-2.102,0-3.821,1.721-3.821,3.822V147.277z" fill="#3677A3" fill-rule="evenodd"/><path clip-rule="evenodd" d="M256,122.182v-18.359c0-2.102-1.72-3.822-3.821-3.822h-48.357      c-2.102,0-3.821,1.721-3.821,3.822v18.965c7.625,3.275,17.08,5.213,27.322,5.213C238.181,128,248.153,125.82,256,122.182z" fill="#2C91B4" fill-rule="evenodd"/><path clip-rule="evenodd" d="M213.561,109.652c2.587,0,4.684,1.971,4.684,4.398      c0,2.43-2.097,4.398-4.684,4.398s-4.684-1.969-4.684-4.398C208.877,111.623,210.974,109.652,213.561,109.652L213.561,109.652z       M209,122h9v24h-9V122L209,122z M230,131.984V146h-8v-24h8v2.766c5-6.666,17-4.365,17,5.328V146h-8v-13.727      c0-0.096-0.021-0.191-0.021-0.289c0-2.436-2.085-4.41-4.489-4.41S230,129.549,230,131.984z" fill="#FFFFFF" fill-rule="evenodd"/></g><g><path clip-rule="evenodd" d="M181,68.275v4.902c0,2.102,1.222,3.822,3.323,3.822      c32.374,0,32.706,0,48.357,0c2.103,0,4.319-1.721,4.319-3.822V24.818c0-2.102-2.217-3.818-4.319-3.818h-48.357      c-2.102,0-3.323,1.717-3.323,3.818V68.275z" fill="#DA2C2C" fill-rule="evenodd"/><path clip-rule="evenodd" d="M237,43.18V24.818c0-2.102-2.217-3.818-4.318-3.818h-48.358      c-2.102,0-3.323,1.717-3.323,3.818v18.967c7,3.275,17.08,5.213,27.322,5.213C219.181,48.998,229,46.818,237,43.18z" fill="#E64545" fill-rule="evenodd"/><path clip-rule="evenodd" d="M189.483,28.602c8.939-1.473,12.631,13.594,10.655,19.295      c-0.532,1.537-1.065,2.242-2.149,3.006c-1.026,0.725-2.26,1.219-3.762,1.377c-3.425,0.357-5.751-1.734-7.065-3.285      C182.172,43.111,180.361,30.102,189.483,28.602L189.483,28.602z M181,51.408c0,0.484,0.983,1.002,1.908,1.514      c0.812,0.451,1.641,0.844,2.598,1.102c2.443,0.66,4.326,0.613,6.932,0.434c-0.305,1.428-1.277,2.525-0.571,5.053      c0.438,1.57,1.811,3.143,2.123,3.881c-3.347,0.158-7.127,0.516-10.298,1.52C182.694,65.225,181,65.76,181,66v4.551      c1-1.004,0.652-1.27,2.448-2.34c1.014-0.605,2.286-1.129,3.556-1.48c2.451-0.68,6.316-1.389,9.109-1.006      c0.513,0.068,2.532,1.683,2.986,2.028c2.954,2.248,6.425,5.247,6.119,9.247h4.983c0.063-1,0.535-1.675,0.384-4.333      c-0.216-3.814-1.328-5.481-3.543-8.02c-2.672-3.061-7.67-5.598-7.848-8.405c-0.103-1.6,0.537-2.449,1.23-3.377      c0.672-0.898,1.516-1.627,2.332-2.35c2.7-2.387,4.514-4.914,4.881-8.988c0.273-3.043-0.104-5.428-1.324-7.77      c-0.937-1.795-2.504-3.936-4.195-4.984c0.997-0.09,2.276-0.023,3.305-0.023c1.619,0,1.519,0.156,2.711-0.564      c0.654-0.395,3.764-2.125,4.06-2.416c-1.188-0.115-7.515-0.029-9.254-0.029c-5.263,0-12.031-0.445-16.894,1.566      c-1.118,0.463-1.785,0.979-2.739,1.6C181.83,29.865,181,30.621,181,30.895V51.408z" fill="#FFFFFF" fill-rule="evenodd"/><polygon clip-rule="evenodd" fill="#FFFFFF" fill-rule="evenodd" points="222,26 226,26 226,35 235,35 235,39 226,39 226,48       222,48 222,39 213,39 213,35 222,35     "/></g><path clip-rule="evenodd" d="M94.591,240h66.818c1.554,0,2.884,0.849,3.578,2.237     L171.855,256H84.145l6.869-13.763C91.707,240.849,93.038,240,94.591,240L94.591,240z M100.003,178h55.994     c3.313,0,6.003,2.924,6.003,6.236v42.941c0,3.314-2.689,5.822-6.003,5.822h-55.994c-3.313,0-6.003-2.508-6.003-5.822v-42.941     C94,180.924,96.689,178,100.003,178z" fill="#5A6575" fill-rule="evenodd"/><path clip-rule="evenodd" d="M136.913,178h19.084c3.313,0,6.003,2.924,6.003,6.236v42.941     c0,3.314-2.689,5.822-6.003,5.822H120.18L136.913,178z" fill="#4F5864" fill-rule="evenodd"/><path clip-rule="evenodd" d="M118.086,240h43.323c1.554,0,2.884,0.849,3.578,2.237     L171.855,256c-19.541,0-39.084,0-58.626,0L118.086,240z" fill="#4F5864" fill-rule="evenodd"/><g><path clip-rule="evenodd" d="M128,58c15.973,0,29-13.027,29-29S143.973,0,128,0      S99,13.027,99,29S112.027,58,128,58z" fill="#DA2C2C" fill-rule="evenodd"/><path clip-rule="evenodd" d="M128,0c13.378,0,24.639,9.061,27.985,21.377      c-6.134,6.484-16.38,10.734-27.985,10.734s-21.852-4.25-27.985-10.734C103.361,9.061,114.622,0,128,0z" fill="#E64545" fill-rule="evenodd"/><path clip-rule="evenodd" d="M119.727,56.801c0.705-1.377,1.682-3.066,1.912-3.5      c1.7-3.191,2.69-10.031,3.178-10.787c0.574,0.988,1.498,1.799,2.432,2.303c0.96,0.518,2.422,1.045,3.494,1.162      c2.713,0.291,5.816-0.586,7.736-1.674c4.061-2.299,6.572-6.336,7.814-10.953c1.555-5.779,1.204-10.895-1.608-15.354      c-2.117-3.355-5.999-6.43-11.241-7.539c-5.387-1.139-11.568-0.037-15.623,2.35c-3.662,2.156-6.926,5.453-8.426,10.348      c-0.811,2.641-0.966,5.52-0.359,8.332c1.205,5.58,5.638,8.104,6.609,7.105c0.286-0.293,1.058-3.045,0.951-3.635      c-0.171-0.939-2.543-2.078-2.352-6.998c0.22-5.66,3.65-9.711,7.232-11.494c4.614-2.293,11.02-2.166,14.816,0.826      c3.773,2.975,4.771,7.936,3.297,14.184c-0.609,2.584-1.529,4.791-2.895,6.498c-0.711,0.891-1.401,1.682-2.466,2.273      c-4.179,2.328-8.38-0.459-7.662-4.471c0.426-2.381,1.46-4.924,2.079-7.297c1.856-7.113-2.648-8.293-5.354-6.92      c-3.351,1.701-4.126,6.586-3.063,10.15c0.232,0.779,0.539,1.014,0.333,1.838l-1.323,5.652c-0.859,3.9-1.875,7.189-2.394,10.713      c-0.239,1.621-0.681,3.748-0.921,5.459C117.15,55.936,118.419,56.412,119.727,56.801z" fill="#FFFFFF" fill-rule="evenodd"/></g><rect clip-rule="evenodd" fill="#77C9F4" fill-rule="evenodd" height="31" width="44" x="106" y="190"/><polygon clip-rule="evenodd" fill="#A5DFF9" fill-rule="evenodd" points="133.258,190 106,190 106,221 123.834,221    "/><path clip-rule="evenodd" d="M113,171v-23.871c0-4.174-0.602-8.027-1.828-11.633     c-1.233-3.623-3.102-7.041-5.63-10.326L80.479,92.605c-3.218-4.182,3.104-9.045,6.29-4.904l25.085,32.594     c3.082,4.004,5.366,8.188,6.88,12.639c1.521,4.469,2.265,9.17,2.265,14.195V171H113L113,171z M124,171V68c0-6,8-6,8,0v103H124     L124,171z M135,171v-23.871c0-5.025,0.746-9.727,2.266-14.195c1.516-4.451,3.798-8.635,6.88-12.639l25.019-32.508     c3.119-4.053,9.672,0.51,6.388,4.777l-25.094,32.605c-2.528,3.285-4.398,6.703-5.631,10.326     c-1.227,3.605-1.827,7.459-1.827,11.633V171H135L135,171z M146,171h8v-21.795c0-3.539,1.271-6.768,3.409-9.221     c2.15-2.467,5.175-4.176,8.663-4.656l20.51-2.83c5.333-0.736,3.869-8.588-1.198-7.887l-20.374,2.811     c-5.475,0.754-10.223,3.438-13.601,7.314c-3.392,3.891-5.409,8.959-5.409,14.469V171L146,171z M102,171h8v-21.795     c0-5.508-2.018-10.578-5.41-14.469c-3.378-3.877-8.125-6.561-13.6-7.314l-20.482-2.826c-5.174-0.713-6.268,7.188-1.04,7.91     l20.46,2.822c3.487,0.48,6.511,2.189,8.663,4.658c2.137,2.451,3.41,5.68,3.41,9.219V171z" fill="#77C9F4" fill-rule="evenodd"/></g></g></svg>