<svg width="128" height="128" viewBox="0 0 128 128" fill="none" xmlns="http://www.w3.org/2000/svg">
<mask id="mask0_49_21" style="mask-type:alpha" maskUnits="userSpaceOnUse" x="0" y="0" width="128" height="128">
<path d="M128 0H0V128H128V0Z" fill="white"/>
</mask>
<g mask="url(#mask0_49_21)">
<path d="M128 0H0V128H128V0Z" fill="#2684FF"/>
<path d="M36.752 61.0899C47.3272 61.0899 55.9 52.5171 55.9 41.9419C55.9 31.3668 47.3272 22.7939 36.752 22.7939C26.1769 22.7939 17.604 31.3668 17.604 41.9419C17.604 52.5171 26.1769 61.0899 36.752 61.0899Z" fill="#B3D4FF"/>
<path d="M36.752 53.289C43.0188 53.289 48.099 48.2087 48.099 41.942C48.099 35.6752 43.0188 30.595 36.752 30.595C30.4852 30.595 25.405 35.6752 25.405 41.942C25.405 48.2087 30.4852 53.289 36.752 53.289Z" fill="white"/>
<path d="M91.248 61.0899C101.823 61.0899 110.396 52.5171 110.396 41.9419C110.396 31.3668 101.823 22.7939 91.248 22.7939C80.6729 22.7939 72.1 31.3668 72.1 41.9419C72.1 52.5171 80.6729 61.0899 91.248 61.0899Z" fill="#B3D4FF"/>
<path d="M91.248 53.289C97.5148 53.289 102.595 48.2087 102.595 41.942C102.595 35.6752 97.5148 30.595 91.248 30.595C84.9812 30.595 79.901 35.6752 79.901 41.942C79.901 48.2087 84.9812 53.289 91.248 53.289Z" fill="white"/>
<path d="M103.833 75.564L96.656 47.107C95.447 41.678 90.631 37.816 85.068 37.816H66.304H62.038H43.274C37.712 37.816 32.895 41.678 31.686 47.107L24.509 75.564C21.206 90.394 32.49 104.468 47.684 104.468H62.038H66.304H80.658C95.852 104.467 107.136 90.394 103.833 75.564Z" fill="#B3D4FF"/>
<path d="M45.733 74.65C50.608 74.65 54.56 70.698 54.56 65.823C54.56 60.948 50.608 56.996 45.733 56.996C40.858 56.996 36.906 60.948 36.906 65.823C36.906 70.698 40.858 74.65 45.733 74.65Z" fill="white"/>
<path d="M82.468 74.65C87.343 74.65 91.295 70.698 91.295 65.823C91.295 60.948 87.343 56.996 82.468 56.996C77.593 56.996 73.641 60.948 73.641 65.823C73.641 70.698 77.593 74.65 82.468 74.65Z" fill="white"/>
<path d="M45.733 69.936C48.0045 69.936 49.846 68.0945 49.846 65.823C49.846 63.5514 48.0045 61.71 45.733 61.71C43.4615 61.71 41.62 63.5514 41.62 65.823C41.62 68.0945 43.4615 69.936 45.733 69.936Z" fill="#2A5083"/>
<path d="M82.468 69.936C84.7396 69.936 86.581 68.0945 86.581 65.823C86.581 63.5514 84.7396 61.71 82.468 61.71C80.1965 61.71 78.355 63.5514 78.355 65.823C78.355 68.0945 80.1965 69.936 82.468 69.936Z" fill="#2A5083"/>
<path d="M64.171 62.915C59.958 62.915 56.512 66.362 56.512 70.574V72.669V81.269V83.364H71.83V81.269V72.669V70.574C71.83 66.362 68.384 62.915 64.171 62.915Z" fill="#2A5083"/>
<path d="M87.65 78.449C87.284 77.607 86.238 77.184 85.382 77.544C78.799 80.259 71.814 81.637 64.618 81.637C54.2 81.637 46.328 78.791 43.427 77.567C42.59 77.218 41.59 77.59 41.186 78.395C40.97 78.827 40.942 79.333 41.109 79.785C41.275 80.233 41.623 80.598 42.067 80.783C45.171 82.088 53.586 85.125 64.644 85.125C72.293 85.125 79.72 83.66 86.722 80.772C87.155 80.593 87.492 80.251 87.67 79.813C87.847 79.37 87.842 78.886 87.65 78.449Z" fill="#2A5083"/>
<path opacity="0.1" d="M95.918 99.176C93.051 86.653 81.166 82.708 81.166 82.708C77.52 92.362 81.17 99.372 85.755 103.979C89.577 103.202 93.035 101.519 95.918 99.176Z" fill="#2A5083"/>
<path d="M81.258 82.708C81.258 82.708 101.191 82.453 104.41 104.467C104.411 104.467 80.663 103.426 81.258 82.708Z" fill="#00C7E6"/>
<path d="M96.688 96.974C97.211 96.398 97.168 95.499 96.592 94.976L83.242 82.845C82.011 82.7 81.256 82.708 81.256 82.708C81.234 83.467 81.254 84.192 81.296 84.899L94.69 97.07C95.266 97.593 96.165 97.55 96.688 96.974Z" fill="#00A3BF"/>
</g>
</svg>
