<?xml version="1.0" ?><svg viewBox="0 0 100 100" xmlns="http://www.w3.org/2000/svg"><title/><circle cx="50" cy="50" fill="#e6e6e6" r="49.5"/><path d="M20.30042,26.49893a5.47152,5.47152,0,0,0-3.46207.71864,4.02,4.02,0,0,0-1.55514,3.17566v1.26058l5.2796.23351Z" fill="#2b687f"/><rect fill="#2b687f" height="37.02288" width="11.10004" x="15.28321" y="30.39323"/><path d="M74.09252,26.49893H68.38845V24.14827a4.53,4.53,0,0,0-4.53407-4.53412H51.06714a4.53667,4.53667,0,0,0-4.53407,4.53412v2.35066H20.30042A2.09562,2.09562,0,0,0,18.211,28.58841V69.50035l6.83244,1.04474-.55373,3.176H51.49544L76.18194,51.416V28.58841A2.09558,2.09558,0,0,0,74.09252,26.49893Z" fill="#4d4d4d"/><rect fill="#fff" height="41.78949" width="59.64383" x="20.47669" y="30.70403"/><path d="M23.60174,73.72107c-2.18347,0-4.37734-.06268-5.78773-1.14919a6.50329,6.50329,0,0,1-2.52818-5.161V65.32141H18.211v1.75515a2.00406,2.00406,0,0,0,1.04471,1.82829,2.03534,2.03534,0,0,0,.97157.209,2.01388,2.01388,0,0,0,1.88046-1.59848l-.7104,3.41631A2.31161,2.31161,0,0,0,23.60174,73.72107Z" fill="#2b687f"/><path d="M88.66624,38.53433l-6.97865,33.3376a2.32352,2.32352,0,0,1-2.267,1.84914H23.66442a2.32017,2.32017,0,0,1-2.26707-2.79989l.7104-3.40585L28.376,37.58364a2.32286,2.32286,0,0,1,2.26707-1.83875H86.39923A2.31164,2.31164,0,0,1,88.66624,38.53433Z" fill="#2b687f"/><circle cx="73.33344" cy="68.89374" fill="#fff" r="9.27192"/><path d="M73.22377,56.35689A12.01448,12.01448,0,1,0,85.23793,68.37137,12.01434,12.01434,0,0,0,73.22377,56.35689Zm5.92342,16.24852-4.95676,3.47906a1.5628,1.5628,0,0,1-.90035.28465H73.158a1.5628,1.5628,0,0,1-.90035-.28465l-4.95727-3.47906A1.56695,1.56695,0,1,1,69.101,70.0405L71.5807,71.7808V61.94073a1.56706,1.56706,0,1,1,3.13413,0v9.94675l2.63167-1.847a1.56695,1.56695,0,0,1,1.8007,2.56491Z" fill="#ffab80"/></svg>