<?xml version="1.0" encoding="iso-8859-1"?>
<!-- Generator: Adobe Illustrator 19.0.0, SVG Export Plug-In . SVG Version: 6.00 Build 0)  -->
<svg version="1.1" id="Layer_1" xmlns="http://www.w3.org/2000/svg" xmlns:xlink="http://www.w3.org/1999/xlink" x="0px" y="0px"
	 viewBox="0 0 460 460" style="enable-background:new 0 0 460 460;" xml:space="preserve">
<g id="XMLID_1074_">
	<path id="XMLID_1075_" style="fill:#12398F;" d="M199.679,458.008l258.329-258.33C443.165,86.986,346.746,0,230,0
		C102.974,0,0,102.974,0,230C0,346.746,86.986,443.166,199.679,458.008z"/>
	<path id="XMLID_1076_" style="fill:#071E61;" d="M460,230c0-10.28-0.685-20.399-1.992-30.322l-98.843-98.843l-258.33,258.33
		l98.844,98.844C209.602,459.315,219.721,460,230,460C357.026,460,460,357.025,460,230z"/>
	<path id="XMLID_1077_" style="fill:#487ED2;" d="M230,412.667c-100.723,0-182.667-81.944-182.667-182.667
		S129.278,47.333,230,47.333L240,230L230,412.667z"/>
	<path id="XMLID_1078_" style="fill:#071E61;" d="M230,392.667c-89.695,0-162.667-72.972-162.667-162.667S140.305,67.333,230,67.333
		S392.667,140.305,392.667,230S319.695,392.667,230,392.667z"/>
	<path id="XMLID_1080_" style="fill:#487ED2;" d="M230,351.534c-67.014,0-121.534-54.52-121.534-121.534
		S162.986,108.466,230,108.466L240,230L230,351.534z"/>
	<path id="XMLID_1081_" style="fill:#FFAE46;" d="M128.25,230c0,56.098,45.652,101.75,101.75,101.75L240,230l-10-101.75
		C173.902,128.25,128.25,173.902,128.25,230z"/>
	<path id="XMLID_1082_" style="fill:#FE843F;" d="M230,290c-33.08,0-60-26.92-60-60s26.92-60,60-60l10,60L230,290z"/>
	<path id="XMLID_1083_" style="fill:#FE843F;" d="M230,128.25v203.5c56.098,0,101.75-45.652,101.75-101.75
		S286.098,128.25,230,128.25z"/>
	<path id="XMLID_1084_" style="fill:#1D54BD;" d="M230,412.667v-20c89.695,0,162.667-72.972,162.667-162.667
		S319.695,67.333,230,67.333v-20c100.723,0,182.667,81.944,182.667,182.667S330.723,412.667,230,412.667z"/>
	<path id="XMLID_1085_" style="fill:#1D54BD;" d="M230,351.534v-20c55.986,0,101.534-45.548,101.534-101.534
		S285.986,128.466,230,128.466v-20c67.014,0,121.534,54.52,121.534,121.534S297.014,351.534,230,351.534z"/>
	<circle id="XMLID_1086_" style="fill:#48D9FF;" cx="352.094" cy="352.094" r="30"/>
	<circle id="XMLID_1087_" style="fill:#FFE278;" cx="151.134" cy="151.133" r="30"/>
	<path id="XMLID_1088_" style="fill:#FC5A37;" d="M230,170v20c-22.06,0-40,17.94-40,40s17.94,40,40,40v20c33.08,0,60-26.92,60-60
		S263.08,170,230,170z"/>
	<path id="XMLID_1089_" style="fill:#DB3916;" d="M230,190c22.06,0,40,17.94,40,40s-17.94,40-40,40V190z"/>
</g>
<g>
</g>
<g>
</g>
<g>
</g>
<g>
</g>
<g>
</g>
<g>
</g>
<g>
</g>
<g>
</g>
<g>
</g>
<g>
</g>
<g>
</g>
<g>
</g>
<g>
</g>
<g>
</g>
<g>
</g>
</svg>
