<?xml version="1.0" ?><!DOCTYPE svg  PUBLIC '-//W3C//DTD SVG 1.1//EN'  'http://www.w3.org/Graphics/SVG/1.1/DTD/svg11.dtd'><svg enable-background="new 0 0 136.367 135.462" height="135.462px" id="Layer_1" version="1.1" viewBox="0 0 136.367 135.462" width="136.367px" xml:space="preserve" xmlns="http://www.w3.org/2000/svg" xmlns:xlink="http://www.w3.org/1999/xlink"><g><circle cx="68.183" cy="67.731" fill="#1B468F" r="63.333"/><path d="M112.966,22.947c24.733,24.734,24.735,64.833,0,89.568c-24.732,24.732-64.834,24.733-89.568,0   L112.966,22.947z" fill="#16467C"/><g><path d="M130.366,79.732L88.217,37.584L75.685,50.117l-9.176-9.176l-9.125,9.125l-7.375-7.375l-9.236,9.236    l16.551,16.551l-5.93,5.93l-4.593-4.593L36.606,80.01l48.695,48.695C108.191,122.291,125.833,103.349,130.366,79.732z" fill="#143E68"/></g><path d="M81.074,56.74c-5.989,0-10.848-4.848-10.848-10.823   c0-5.977,4.859-10.825,10.848-10.825s10.847,4.848,10.847,10.825C91.921,51.893,87.063,56.74,81.074,56.74L81.074,56.74z    M72.2,67.169c0-5.979-4.856-10.823-10.848-10.823c-5.992,0-10.847,4.844-10.847,10.823c0,0.245,0.02,0.482,0.036,0.723h-0.036   v18.759H72.2V67.892h-0.037C72.179,67.651,72.2,67.414,72.2,67.169L72.2,67.169z M61.352,54.901c4.392,0,7.954-3.551,7.954-7.936   c0-4.38-3.562-7.936-7.954-7.936c-4.391,0-7.954,3.556-7.954,7.936C53.397,51.35,56.96,54.901,61.352,54.901L61.352,54.901z    M95.867,73.468c0-8.154-6.621-14.761-14.792-14.761c-8.171,0-14.792,6.607-14.792,14.761c0,0.331,0.027,0.656,0.049,0.98h-0.049   v25.584h29.584V74.449h-0.05C95.84,74.125,95.867,73.799,95.867,73.468L95.867,73.468z M45.574,55.166   c-4.905,0-8.875,3.962-8.875,8.854c0,0.199,0.015,0.395,0.029,0.592h-0.029v15.35h17.75v-15.35h-0.029   c0.013-0.198,0.029-0.394,0.029-0.592C54.448,59.127,50.476,55.166,45.574,55.166L45.574,55.166z M45.574,53.986   c3.592,0,6.507-2.908,6.507-6.494c0-3.586-2.915-6.494-6.507-6.494c-3.593,0-6.51,2.907-6.51,6.494   C39.064,51.078,41.981,53.986,45.574,53.986L45.574,53.986z" fill="#FFFFFF" id="Myspace__x28_alt_x29__3_"/></g></svg>