<svg width="128" height="128" viewBox="0 0 128 128" fill="none" xmlns="http://www.w3.org/2000/svg">
<g clip-path="url(#clip0_49_0)">
<mask id="mask0_49_0" style="mask-type:alpha" maskUnits="userSpaceOnUse" x="0" y="0" width="128" height="128">
<path d="M128 0H0V128H128V0Z" fill="white"/>
</mask>
<g mask="url(#mask0_49_0)">
<path d="M128 0H0V128H128V0Z" fill="#2684FF"/>
<path d="M59.3 53C63.7 51.2 66.8 47 66.8 42C66.8 35.4 61.5 30.1 54.9 30.1C52 30.1 49.4 31.1 47.4 32.8L59.3 53Z" fill="#FFC400"/>
<path d="M64.1 60.7L61 63.8C60.2 64.6 58.9 64.6 58.1 63.8L54.8 60.5C54 59.7 52.7 59.7 51.9 60.5L48.2 64.2C47.4 65 46.1 65 45.3 64.2L42 60.9C41.2 60.1 39.9 60.1 39.1 60.9L36.1 63.9C35.3 64.7 34 64.7 33.2 63.9L30.2 61C29.4 60.2 28.1 60.2 27.3 61L24.5 63.8C23.7 64.6 22.4 64.6 21.6 63.8L18.4 60.6C18.2 60.4 18 60.3 17.8 60.2L-12.6 108.4C-4.39998 132.9 2.30003 134.8 29.3 135.9L63.8 127.9H66.6C78.1 127.4 88.8 123.9 98 118.1L64.1 60.7Z" fill="#DEEBFF"/>
<path opacity="0.2" d="M78.2 67.1L51.1 112.8V126.7C55.2 127.5 59.5 128 63.9 128C79.7 128 94.1 122.3 105.2 112.8L78.2 67.1Z" fill="#39A9E2"/>
<path d="M122.3 86.1L111.9 68.5C111.4 68.6 111 68.7 110.7 69.1L107 72.8C106.2 73.6 104.9 73.6 104.1 72.8L100.8 69.5C100 68.7 98.7 68.7 97.9 69.5L94.9 72.5C94.1 73.3 92.8 73.3 92 72.5L89 69.5C88.2 68.7 86.9 68.7 86.1 69.5L83.3 72.3C82.5 73.1 81.2 73.1 80.4 72.3L77.2 69.1L46.6 120.3C45.2 122.6 44 130.9 46.6 131.5C50.5 132.4 57.3 131.3 61.5 131.5L64 130.5H66.5C91.5 129.5 135.5 143 139 115C139.143 113.855 122.9 87.1 122.3 86.1Z" fill="#B3D4FF"/>
<path opacity="0.4" d="M72.3 22.2H29.2C24.9 22.2 21.4 25.7 21.4 30C21.4 34.3 24.9 37.7999 29.2 37.7999H72.3C76.6 37.7999 80.1 34.3 80.1 30C80.1 25.7 76.6 22.2 72.3 22.2Z" fill="white"/>
<path d="M64.2 60.8L61.1 63.9C60.3 64.7 59 64.7 58.2 63.9L54.9 60.6C54.1 59.8 52.8 59.8 52 60.6L48.3 64.3C47.5 65.1 46.2 65.1 45.4 64.3L42 60.9C41.7 60.6 41.2 60.4 40.8 60.3V131.5C47.2 134 89.1 123.9 98.2 118.1L64.2 60.8Z" fill="#B3D4FF"/>
<path d="M98.1 45.1C96.6 42.5 92.8 42.5 91.2 45.1L76.6 69.7C76.8 69.8 77 69.9 77.2 70.1L80.4 73.3C81.2 74.1 82.5 74.1 83.3 73.3L86.1 70.5C86.9 69.7 88.2 69.7 89 70.5L91.9 73.4C92.7 74.2 94 74.2 94.8 73.4L97.8 70.4C98.6 69.6 99.9 69.6 100.7 70.4L104 73.7C104.8 74.5 106.1 74.5 106.9 73.7L110.6 70C111.1 69.5 111.8 69.3 112.5 69.4L98.1 45.1Z" fill="white"/>
<path d="M36.2 29.1L17.3 61.1C17.7 61.2 18.1 61.3 18.4 61.6L21.6 64.8001C22.4 65.6001 23.7 65.6001 24.5 64.8001L27.3 62C28.1 61.2001 29.4 61.2001 30.2 62L33.1 64.9001C33.9 65.7001 35.2 65.7001 36 64.9001L39 61.9001C39.8 61.1001 41.1 61.1001 41.9 61.9001L45.2 65.2C46 66 47.3 66 48.1 65.2L51.8 61.5C52.6 60.7001 53.9 60.7001 54.7 61.5L58 64.8001C58.8 65.6001 60.1 65.6001 60.9 64.8001L64.1 61.6L64.2 61.5L44.6 28.1C42.3 25.6 38.1 26 36.2 29.1Z" fill="white"/>
</g>
</g>
<defs>
<clipPath id="clip0_49_0">
<rect width="128" height="128" fill="white"/>
</clipPath>
</defs>
</svg>
