<svg width="128" height="128" viewBox="0 0 128 128" fill="none" xmlns="http://www.w3.org/2000/svg">
<g clip-path="url(#clip0_49_31)">
<mask id="mask0_49_31" style="mask-type:alpha" maskUnits="userSpaceOnUse" x="0" y="0" width="128" height="128">
<path d="M128 0H0V128H128V0Z" fill="white"/>
</mask>
<g mask="url(#mask0_49_31)">
<path d="M128 0H0V128H128V0Z" fill="#00C7E6"/>
<path d="M68.101 74.324L44.671 97.754L73.279 130.588C73.279 130.588 92.075 138.572 96.55 136.575L68.101 74.324Z" fill="#2A5083"/>
<path d="M84.991 80.553L92.112 87.674C93.444 89.006 93.444 91.1859 92.112 92.5179L75.49 109.141C72.199 112.432 66.815 112.432 63.525 109.141C60.234 105.85 60.234 100.466 63.525 97.176L80.147 80.554C81.479 79.221 83.659 79.221 84.991 80.553Z" fill="#DEEBFF"/>
<path opacity="0.2" d="M84.991 80.553L88.552 84.1139L63.525 109.141C60.234 105.85 60.234 100.466 63.525 97.176L80.147 80.554C81.479 79.221 83.659 79.221 84.991 80.553Z" fill="#194063"/>
<path d="M-0.497985 55.2831L28.325 80.9371L51.755 57.5071L-3.35999 33.5391C-3.35999 33.5391 0.359015 49.0351 -0.497985 55.2831Z" fill="#2A5083"/>
<path d="M101.639 24.782C95.065 18.207 79.54 23.071 66.966 35.646L-3.79997 104.412C-0.709967 109.906 -7.83497 125.894 -3.32397 130.231L102.759 26.148C102.431 25.659 102.059 25.201 101.639 24.782Z" fill="white"/>
<path d="M-2.53601 128.037C1.43999 132.069 9.94999 132.567 14.874 135.437L90.856 59.455C103.431 46.88 108.295 31.356 101.721 24.781L-2.53601 128.037Z" fill="#DEEBFF"/>
<path d="M45.639 41.2011L38.518 34.0801C37.186 32.7481 35.006 32.7481 33.674 34.0801L17.051 50.7021C13.76 53.9931 13.76 59.3771 17.051 62.6671C20.342 65.9581 25.726 65.9581 29.016 62.6671L45.638 46.0451C46.971 44.7131 46.971 42.5331 45.639 41.2011Z" fill="white"/>
<path opacity="0.2" d="M45.639 41.201L42.078 37.64L17.051 62.667C20.342 65.958 25.726 65.958 29.016 62.667L45.638 46.045C46.971 44.713 46.971 42.533 45.639 41.201Z" fill="#DEEBFF"/>
<path opacity="0.2" d="M71.965 63.574L63.024 54.633C61.318 52.927 61.318 50.137 63.024 48.431L65.099 46.356C66.805 44.65 69.595 44.65 71.301 46.356L80.242 55.297C81.948 57.003 81.948 59.793 80.242 61.499L78.167 63.574C76.461 65.28 73.67 65.28 71.965 63.574Z" fill="#194063"/>
<path d="M71.905 60.107L71.193 59.395C70.607 58.809 70.607 57.851 71.193 57.266L73.946 54.513C74.532 53.927 75.49 53.927 76.075 54.513L76.788 55.225C77.374 55.811 77.374 56.769 76.788 57.354L74.035 60.107C73.449 60.693 72.491 60.693 71.905 60.107Z" fill="#194063"/>
<path d="M66.965 55.167L66.252 54.455C65.666 53.869 65.666 52.911 66.252 52.326L69.005 49.573C69.591 48.987 70.549 48.987 71.134 49.573L71.846 50.285C72.432 50.871 72.432 51.829 71.846 52.414L69.093 55.167C68.509 55.752 67.55 55.752 66.965 55.167Z" fill="#194063"/>
</g>
</g>
<defs>
<clipPath id="clip0_49_31">
<rect width="128" height="128" fill="white"/>
</clipPath>
</defs>
</svg>
