<svg width="128" height="128" viewBox="0 0 128 128" fill="none" xmlns="http://www.w3.org/2000/svg">
<g clip-path="url(#clip0_1_186)">
<mask id="mask0_1_186" style="mask-type:alpha" maskUnits="userSpaceOnUse" x="0" y="0" width="128" height="128">
<path d="M128 0H0V128H128V0Z" fill="white"/>
</mask>
<g mask="url(#mask0_1_186)">
<path d="M128 0H0V128H128V0Z" fill="#FF5630"/>
<path d="M96.814 25.996H31.104C24.242 25.996 18.627 31.61 18.627 38.473V50.502H109.291V38.472C109.29 31.61 103.676 25.996 96.814 25.996Z" fill="white"/>
<path d="M18.627 50.224V87.681V88.496C18.627 95.358 24.241 100.973 31.104 100.973H96.814C103.676 100.973 109.291 95.359 109.291 88.496V87.681V50.224H18.627Z" fill="#253858"/>
<path d="M33.5979 43.245C36.1247 43.245 38.1729 41.1967 38.1729 38.67C38.1729 36.1433 36.1247 34.095 33.5979 34.095C31.0712 34.095 29.0229 36.1433 29.0229 38.67C29.0229 41.1967 31.0712 43.245 33.5979 43.245Z" fill="#FF4E4A"/>
<path d="M48.0101 43.245C50.5368 43.245 52.5851 41.1967 52.5851 38.67C52.5851 36.1433 50.5368 34.095 48.0101 34.095C45.4834 34.095 43.4351 36.1433 43.4351 38.67C43.4351 41.1967 45.4834 43.245 48.0101 43.245Z" fill="#FFB115"/>
<path d="M62.4209 43.245C64.9477 43.245 66.9959 41.1967 66.9959 38.67C66.9959 36.1433 64.9477 34.095 62.4209 34.095C59.8942 34.095 57.8459 36.1433 57.8459 38.67C57.8459 41.1967 59.8942 43.245 62.4209 43.245Z" fill="#00C7E6"/>
<path d="M56.3391 76.3239L60.5031 76.55L57.3161 82.928C56.7991 83.962 57.1961 85.219 58.2131 85.7689C59.2781 86.3449 60.6081 85.926 61.1491 84.843L64.3741 78.388L66.8561 81.278C67.7771 82.351 69.5371 81.7239 69.5721 80.3099L69.9401 65.517C69.9751 64.122 68.3661 63.321 67.2741 64.189L55.4621 73.5719C54.3491 74.4559 54.9201 76.2469 56.3391 76.3239Z" fill="white"/>
</g>
</g>
<defs>
<clipPath id="clip0_1_186">
<rect width="128" height="128" fill="white"/>
</clipPath>
</defs>
</svg>
