<svg width="128" height="128" viewBox="0 0 128 128" fill="none" xmlns="http://www.w3.org/2000/svg">
<g clip-path="url(#clip0_1_63)">
<rect width="128" height="128" fill="#6555C0"/>
<mask id="mask0_1_63" style="mask-type:alpha" maskUnits="userSpaceOnUse" x="0" y="0" width="128" height="128">
<path d="M128 0H0V128H128V0Z" fill="white"/>
</mask>
<g mask="url(#mask0_1_63)">
<path d="M128 0H0V128H128V0Z" fill="#00C7E6"/>
<path d="M91.1 18H36.6C31.7 18 27.8 22 27.8 26.8V99.5C27.8 104.4 31.8 108.3 36.6 108.3H91C95.9 108.3 99.8 104.3 99.8 99.5V26.9C99.9 22 95.9 18 91.1 18Z" fill="white"/>
<path d="M89.1 40.6H43.6C42 40.6 40.7 39.3001 40.7 37.7001C40.7 36.1001 42 34.8 43.6 34.8H89.1C90.7 34.8 92 36.1001 92 37.7001C92 39.3001 90.7 40.6 89.1 40.6Z" fill="#D3E0EA"/>
<path d="M89.1 53.5H43.6C42 53.5 40.7 52.1999 40.7 50.5999C40.7 48.9999 42 47.7 43.6 47.7H89.1C90.7 47.7 92 48.9999 92 50.5999C92 52.1999 90.7 53.5 89.1 53.5Z" fill="#D3E0EA"/>
<path d="M61.1 66.4H43.6C42 66.4 40.7 65.1 40.7 63.5C40.7 61.9 42 60.6 43.6 60.6H61.1C62.7 60.6 64 61.9 64 63.5C64 65.1 62.7 66.4 61.1 66.4Z" fill="#D3E0EA"/>
<path d="M32.6 92.4H23.7C22.1 92.4 20.8 91.1 20.8 89.5C20.8 87.9 22.1 86.6 23.7 86.6H32.6C34.2 86.6 35.5 87.9 35.5 89.5C35.5 91.1 34.2 92.4 32.6 92.4Z" fill="#2A5083"/>
<path d="M32.6 75.2H23.7C22.1 75.2 20.8 73.9 20.8 72.3C20.8 70.7 22.1 69.4 23.7 69.4H32.6C34.2 69.4 35.5 70.7 35.5 72.3C35.5 73.9 34.2 75.2 32.6 75.2Z" fill="#2A5083"/>
<path d="M32.6 57.9H23.7C22.1 57.9 20.8 56.6 20.8 55C20.8 53.4 22.1 52.1 23.7 52.1H32.6C34.2 52.1 35.5 53.4 35.5 55C35.5 56.6 34.2 57.9 32.6 57.9Z" fill="#2A5083"/>
<path d="M32.6 40.6H23.7C22.1 40.6 20.8 39.3001 20.8 37.7001C20.8 36.1001 22.1 34.8 23.7 34.8H32.6C34.2 34.8 35.5 36.1001 35.5 37.7001C35.5 39.3001 34.2 40.6 32.6 40.6Z" fill="#2A5083"/>
<path d="M98 33.6C92.8 30.9 87.5 30.7 86.2 33.2L81.9 41.4L100.7 51.3L105 43C106.3 40.6 103.2 36.3 98 33.6Z" fill="#FF4E4A"/>
<path d="M105.3 42C105.5 39.5 102.5 36 98 33.6L91.3 46.3L100.7 51.2L101.3 50.1L105 43C105.2 42.7 105.3 42.4 105.3 42Z" fill="#D63E3E"/>
<path d="M79.4948 45.8817L98.3602 55.7712L101.285 50.1913L82.4198 40.3017L79.4948 45.8817Z" fill="#EBF2F9"/>
<path d="M92.1 52.5L85.8 49.2L79.5 45.9L60.6 82L66.9 85.3L73.2 88.6L79.4 91.9L98.4 55.7L92.1 52.5Z" fill="#FFC400"/>
<path d="M71.9 84.5L71.7 83.8L66.9 85.3L65.4 80.5L60.6 82L60.5 82.2C60.3 82.5 60.2 82.9 60.3 83.3L61 93.3L66 95.9L71.9 84.5Z" fill="#FFD49B"/>
<path d="M92.1 52.4001L88.9 50.8L70 86.9001L73.2 88.6L79.4 91.8001L81.8 87.2L98.3 55.7001L92.1 52.4001Z" fill="#FF991F"/>
<path d="M69.9 98L78.6 92.9C78.9 92.7 79.2 92.4 79.3 92.1L79.4 91.9L77.9 87.1L73.2 88.6L71.7 83.8L65.3 95.6C65.9 96 69.2 98.4 69.9 98Z" fill="#E2AD79"/>
<path d="M65.3 95.6L62.3 101.1C62.4 101.2 62.6 101.3 62.7 101.3H62.8C63 101.4 63.1 101.4 63.3 101.4H63.4H63.9H64C64.2 101.4 64.4 101.3 64.6 101.2L70 98L65.3 95.6Z" fill="#173E68"/>
<path d="M61 93.3L61.4 99.5C61.4 100.2 61.8 100.7 62.3 101L65.3 95.5L61 93.3Z" fill="#2A5083"/>
</g>
</g>
<defs>
<clipPath id="clip0_1_63">
<rect width="128" height="128" fill="white"/>
</clipPath>
</defs>
</svg>
